<?xml version="1.0" encoding="UTF-8"?>
<svg xmlns="http://www.w3.org/2000/svg" xmlns:xlink="http://www.w3.org/1999/xlink" width="128px" height="128px" viewBox="0 0 128 128" version="1.1">
<g id="surface1">
<path style="fill:none;stroke-width:1.5;stroke-linecap:round;stroke-linejoin:miter;stroke:rgb(10.980392%,15.294118%,29.803922%);stroke-opacity:1;stroke-miterlimit:4;" d="M 9 15.999756 C 9.850342 16.630371 10.884521 17.000244 12 17.000244 C 13.115479 17.000244 14.149658 16.630371 15 15.999756 " transform="matrix(5.333333,0,0,5.333333,0,0)"/>
<path style=" stroke:none;fill-rule:nonzero;fill:rgb(10.980392%,15.294118%,29.803922%);fill-opacity:1;" d="M 85.332031 56 C 85.332031 60.417969 82.945312 64 80 64 C 77.054688 64 74.667969 60.417969 74.667969 56 C 74.667969 51.582031 77.054688 48 80 48 C 82.945312 48 85.332031 51.582031 85.332031 56 Z M 85.332031 56 "/>
<path style=" stroke:none;fill-rule:nonzero;fill:rgb(10.980392%,15.294118%,29.803922%);fill-opacity:1;" d="M 53.332031 56 C 53.332031 51.582031 50.945312 48 48 48 C 45.054688 48 42.667969 51.582031 42.667969 56 C 42.667969 60.417969 45.054688 64 48 64 C 50.945312 64 53.332031 60.417969 53.332031 56 Z M 53.332031 56 "/>
<path style="fill:none;stroke-width:1.5;stroke-linecap:round;stroke-linejoin:miter;stroke:rgb(10.980392%,15.294118%,29.803922%);stroke-opacity:1;stroke-miterlimit:4;" d="M 6.999756 3.337646 C 8.471191 2.487305 10.178467 2.000244 12 2.000244 C 17.522461 2.000244 21.999756 6.476807 21.999756 12 C 21.999756 17.522461 17.522461 21.999756 12 21.999756 C 6.476807 21.999756 2.000244 17.522461 2.000244 12 C 2.000244 10.178467 2.487305 8.471191 3.337646 6.999756 " transform="matrix(5.333333,0,0,5.333333,0,0)"/>
</g>
</svg>
