<?xml version="1.0" encoding="UTF-8"?>
<svg xmlns="http://www.w3.org/2000/svg" xmlns:xlink="http://www.w3.org/1999/xlink" width="64px" height="64px" viewBox="0 0 64 64" version="1.1">
<g id="surface1">
<path style="fill:none;stroke-width:1.5;stroke-linecap:round;stroke-linejoin:miter;stroke:rgb(10.980392%,15.294118%,29.803922%);stroke-opacity:1;stroke-miterlimit:4;" d="M 9 16.000488 C 9.851074 16.630371 10.885254 16.999512 12 16.999512 C 13.114746 16.999512 14.148926 16.630371 15 16.000488 " transform="matrix(2.666667,0,0,2.666667,0,0)"/>
<path style=" stroke:none;fill-rule:nonzero;fill:rgb(10.980392%,15.294118%,29.803922%);fill-opacity:1;" d="M 42.667969 28 C 42.667969 30.210938 41.472656 32 40 32 C 38.527344 32 37.332031 30.210938 37.332031 28 C 37.332031 25.789062 38.527344 24 40 24 C 41.472656 24 42.667969 25.789062 42.667969 28 Z M 42.667969 28 "/>
<path style=" stroke:none;fill-rule:nonzero;fill:rgb(10.980392%,15.294118%,29.803922%);fill-opacity:1;" d="M 26.667969 28 C 26.667969 25.789062 25.472656 24 24 24 C 22.527344 24 21.332031 25.789062 21.332031 28 C 21.332031 30.210938 22.527344 32 24 32 C 25.472656 32 26.667969 30.210938 26.667969 28 Z M 26.667969 28 "/>
<path style="fill:none;stroke-width:1.5;stroke-linecap:round;stroke-linejoin:miter;stroke:rgb(10.980392%,15.294118%,29.803922%);stroke-opacity:1;stroke-miterlimit:4;" d="M 7.000488 3.338379 C 8.471191 2.487305 10.179199 1.999512 12 1.999512 C 17.522461 1.999512 22.000488 6.477539 22.000488 12 C 22.000488 17.522461 17.522461 22.000488 12 22.000488 C 6.477539 22.000488 1.999512 17.522461 1.999512 12 C 1.999512 10.179199 2.487305 8.471191 3.338379 7.000488 " transform="matrix(2.666667,0,0,2.666667,0,0)"/>
</g>
</svg>
